static_00
version=1
nRows=11
nColumns=46
inDegrees=yes
endheader
time	ground_force3_vx	ground_force3_vy	ground_force3_vz	ground_force3_px	ground_force3_py	ground_force3_pz	ground_torque3_x	ground_torque3_y	ground_torque3_z	ground_force5_vx	ground_force5_vy	ground_force5_vz	ground_force5_px	ground_force5_py	ground_force5_pz	ground_torque5_x	ground_torque5_y	ground_torque5_z	ground_force4_vx	ground_force4_vy	ground_force4_vz	ground_force4_px	ground_force4_py	ground_force4_pz	ground_torque4_x	ground_torque4_y	ground_torque4_z	ground_force1_vx	ground_force1_vy	ground_force1_vz	ground_force1_px	ground_force1_py	ground_force1_pz	ground_torque1_x	ground_torque1_y	ground_torque1_z	ground_force2_vx	ground_force2_vy	ground_force2_vz	ground_force2_px	ground_force2_py	ground_force2_pz	ground_torque2_x	ground_torque2_y	ground_torque2_z
0.197500	1.761499	478.207153	-56.161427	0.192170	0.000000	-0.393488	0.000020	1.237576	0.000004	-0.000000	-0.000000	0.000000	0.200000	0.000000	-1.500000	0.000000	0.000000	0.000000	-1.435362	443.534698	56.480049	0.205733	0.000000	-0.804694	0.000005	-0.148262	0.000009	-2.172221	7.956395	-0.951925	0.187273	0.000000	0.973190	-0.000001	-0.107965	0.000000	-3.171338	4.586560	-0.337197	0.136563	0.000000	0.155098	-0.000000	0.226216	0.000000	
0.198000	1.761499	477.888611	-56.000130	0.191866	0.000000	-0.393398	0.000012	1.318527	0.000005	-0.000000	-0.000000	0.000000	0.200000	0.000000	-1.500000	0.000000	0.000000	0.000000	-1.597949	443.053864	56.559296	0.205835	0.000000	-0.803931	0.000018	-0.251990	0.000003	-2.496876	7.481936	-0.952350	0.181762	0.000000	0.972478	-0.000000	-0.174326	0.000000	-3.010210	4.586481	-0.175305	0.145232	0.000000	0.187783	0.000000	0.106600	0.000000	
0.198500	1.761499	477.888916	-55.919567	0.191941	0.000000	-0.393391	0.000022	1.249327	0.000005	-0.000000	-0.000000	0.000000	0.200000	0.000000	-1.500000	0.000000	0.000000	0.000000	-1.356385	443.691956	56.801628	0.206100	0.000000	-0.804483	0.000016	-0.263744	0.000003	-2.171792	7.170232	-1.193576	0.183104	0.000000	0.931499	-0.000000	0.016663	0.000000	-2.930493	4.742609	-0.257015	0.139573	0.000000	0.237287	-0.000000	-0.054816	0.000000	
0.199000	1.761500	477.889252	-55.839005	0.192015	0.000000	-0.393383	0.000012	1.180115	0.000005	-0.000000	-0.000000	0.000000	0.200000	0.000000	-1.500000	0.000000	0.000000	0.000000	-1.114821	444.330078	57.043961	0.206364	0.000000	-0.805034	0.000024	-0.275852	0.000004	-1.846707	6.858528	-1.434802	0.184568	0.000000	0.886796	-0.000000	0.188710	0.000000	-2.850775	4.898737	-0.338724	0.134274	0.000000	0.283635	-0.000000	-0.200146	-0.000000	
0.199500	1.600627	476.786499	-56.081718	0.192173	0.000000	-0.393834	0.000015	1.082066	0.000002	-0.000000	-0.000000	0.000000	0.200000	0.000000	-1.500000	0.000000	0.000000	0.000000	-0.952234	443.532532	56.962673	0.206106	0.000000	-0.804646	0.000005	-0.242017	0.000006	-2.009894	8.747614	-1.032192	0.186855	0.000000	0.902899	-0.000000	0.063327	0.000000	-2.528943	5.217568	-0.177341	0.150985	0.000000	0.251519	-0.000000	-0.104115	0.000000	
0.200000	1.439754	475.683716	-56.324432	0.192333	0.000000	-0.394288	0.000002	0.984277	0.000004	-0.000000	-0.000000	0.000000	0.200000	0.000000	-1.500000	0.000000	0.000000	0.000000	-0.789647	442.734985	56.881386	0.205846	0.000000	-0.804256	0.000030	-0.208046	0.000005	-2.173080	10.636700	-0.629583	0.188330	0.000000	0.913282	-0.000001	-0.057235	0.000000	-2.207111	5.536398	-0.015957	0.165772	0.000000	0.223102	-0.000000	-0.042345	0.000000	
0.200500	1.278881	477.735382	-56.243359	0.192311	0.000000	-0.394057	0.000017	1.015345	0.000001	-0.000000	-0.000000	0.000000	0.200000	0.000000	-1.500000	0.000000	0.000000	0.000000	-0.789647	443.694153	56.640076	0.205836	0.000000	-0.804498	0.000013	-0.196297	0.000008	-1.848855	8.744459	-0.710275	0.188360	0.000000	0.960285	-0.000000	-0.105000	0.000000	-2.447533	6.650262	-0.337706	0.166622	0.000000	0.232694	-0.000000	-0.005043	0.000000	
0.201000	1.118008	479.787048	-56.162285	0.192289	0.000000	-0.393828	0.000010	1.046351	0.000008	-0.000000	-0.000000	0.000000	0.200000	0.000000	-1.500000	0.000000	0.000000	0.000000	-0.789647	444.653320	56.398762	0.205825	0.000000	-0.804738	0.000032	-0.184556	0.000004	-1.524629	6.852219	-0.790966	0.188406	0.000000	1.033247	-0.000001	-0.161846	0.000000	-2.687955	7.764125	-0.659455	0.167228	0.000000	0.239533	-0.000000	0.035430	0.000000	
0.201500	1.520190	478.050323	-56.242504	0.192266	0.000000	-0.394123	0.000009	1.135081	0.000004	-0.000000	-0.000000	0.000000	0.200000	0.000000	-1.500000	0.000000	0.000000	0.000000	-0.789647	444.655853	56.317986	0.205825	0.000000	-0.804746	0.000025	-0.193753	-0.000001	-1.929160	7.639846	-0.550165	0.189058	0.000000	1.010467	-0.000000	-0.115691	0.000000	-1.343977	3.882062	-0.329728	0.167228	0.000000	0.239533	-0.000000	0.017715	0.000000	
0.202000	1.922372	476.313599	-56.322723	0.192243	0.000000	-0.394421	0.000007	1.223558	0.000008	-0.000000	-0.000000	0.000000	0.200000	0.000000	-1.500000	0.000000	0.000000	0.000000	-0.789647	444.658386	56.237206	0.205825	0.000000	-0.804753	0.000011	-0.202953	0.000007	-2.333690	8.427472	-0.309363	0.189588	0.000000	0.991946	-0.000001	-0.061395	0.000000	-0.000000	-0.000000	0.000000	0.200000	0.000000	0.320000	0.000000	0.000000	0.000000	
0.202500	2.083245	476.786316	-55.596970	0.192217	0.000000	-0.393653	0.000003	1.204568	0.000003	-0.000000	-0.000000	0.000000	0.200000	0.000000	-1.500000	0.000000	0.000000	0.000000	-0.870168	444.176147	56.640583	0.205787	0.000000	-0.805107	0.000005	-0.165306	0.000006	-2.090199	8.271954	-0.550589	0.192947	0.000000	0.959105	-0.000000	0.063223	0.000000	-0.000000	-0.000000	0.000000	0.200000	0.000000	0.320000	0.000000	0.000000	0.000000	
